HIERARCHY
ROOT root     
{
	OFFSET 0.0000 0.0000 0.0000
	CHANNELS 6 Xposition Yposition Zposition Zrotation Yrotation Xrotation
	JOINT pelvis   
	{
		OFFSET 0.0000 0.0000 0.0000
		CHANNELS 3 Zrotation Yrotation Xrotation
		JOINT thorax   
		{
			OFFSET 0.0000 23.0750 -5.0000
			CHANNELS 3 Zrotation Yrotation Xrotation
			JOINT rclavicle
			{
				OFFSET 0.0000 28.0009 0.0000
				CHANNELS 3 Zrotation Yrotation Xrotation
				JOINT rhumerus 
				{
					OFFSET -18.5725 5.5939 0.0000
					CHANNELS 3 Zrotation Yrotation Xrotation
					JOINT rradius  
					{
						OFFSET -24.8459 0.0000 0.0000
						CHANNELS 3 Zrotation Yrotation Xrotation
						JOINT rhand    
						{
							OFFSET -24.5477 0.0000 0.0000
							CHANNELS 3 Zrotation Yrotation Xrotation
							End Site
							{
								OFFSET -8.1826 0.0000 0.0000
							}
						}
					}
				}
			}
			JOINT lclavicle
			{
				OFFSET 0.0000 28.0009 0.0000
				CHANNELS 3 Zrotation Yrotation Xrotation
				JOINT lhumerus 
				{
					OFFSET 18.5725 5.5939 0.0000
					CHANNELS 3 Zrotation Yrotation Xrotation
					JOINT lradius  
					{
						OFFSET 24.8459 0.0000 0.0000
						CHANNELS 3 Zrotation Yrotation Xrotation
						JOINT lhand    
						{
							OFFSET 24.5477 0.0000 0.0000
							CHANNELS 3 Zrotation Yrotation Xrotation
							End Site
							{
								OFFSET 8.1826 0.0000 0.0000
							}
						}
					}
				}
			}
			JOINT head     
			{
				OFFSET 0.0000 35.2030 0.0000
				CHANNELS 3 Zrotation Yrotation Xrotation
				End Site
				{
					OFFSET 0.0000 11.7343 0.0000
				}
			}
		}
		JOINT rfemur   
		{
			OFFSET -8.2817 0.0000 0.0000
			CHANNELS 3 Zrotation Yrotation Xrotation
			JOINT rtibia   
			{
				OFFSET 0.0000 -43.3627 0.0000
				CHANNELS 3 Zrotation Yrotation Xrotation
				JOINT rfoot    
				{
					OFFSET 0.0000 -38.2947 0.0000
					CHANNELS 3 Zrotation Yrotation Xrotation
					JOINT rtoes    
					{
						OFFSET 0.0000 0.0000 16.6054
						CHANNELS 3 Zrotation Yrotation Xrotation
						End Site
						{
							OFFSET 0.0000 0.0000 5.5351
						}
					}
				}
			}
		}
		JOINT lfemur   
		{
			OFFSET 8.2817 0.0000 0.0000
			CHANNELS 3 Zrotation Yrotation Xrotation
			JOINT ltibia   
			{
				OFFSET 0.0000 -43.3627 0.0000
				CHANNELS 3 Zrotation Yrotation Xrotation
				JOINT lfoot    
				{
					OFFSET 0.0000 -38.2947 0.0000
					CHANNELS 3 Zrotation Yrotation Xrotation
					JOINT ltoes    
					{
						OFFSET 0.0000 0.0000 16.6054
						CHANNELS 3 Zrotation Yrotation Xrotation
						End Site
						{
							OFFSET 0.0000 0.0000 5.5351
						}
					}
				}
			}
		}
	}
}
MOTION
Frames: 19
Frame Time: .0333333
91.631 68.948 18.231 121.897 -87.7694 -47.686 0 -0 0 -1.1997 -6.91442 20.6996 20.2379 -13.254 0.000123941 60.0935 -21.0607 -35.3609 -2.62237e-08 4.96037 -6.05422e-07 -1.1133 19.4074 -0.190399 -13.6776 20.0312 -2.83036e-05 -65.946 22.9905 -13.2319 -0 -13.4668 0 2.88217 -4.79222 -0.120599 0.64053 1.69219 -43.0495 9.45852 -7.21278 -119.599 -0 -0 76.1733 1.00363e-05 -3.96704 -14.6686 1.00599 1.2204e-07 -60.2412 -11.0472 0.128279 -119.626 -0 -0 75.2507 5.6658e-05 8.52722 -17.0383 -2.51557 1.56853e-05 -43.2041 
91.489 68.897 18.247 122.396 -87.7727 -47.9716 0 -0 0 -1.17472 -6.92794 20.5456 20.3246 -13.285 -1.00907e-05 60.1401 -20.7932 -35.1809 -0 5.21161 -0 -1.19718 19.3094 -0.203694 -13.849 20.049 -0.000113354 -65.8893 22.8115 -12.994 -0 -13.6734 0 2.78358 -4.68914 -0.114 0.570092 1.6664 -43.1417 9.46152 -7.20526 -119.774 -0 -0 76.3384 -1.25815e-05 -3.95914 -14.8663 1.01729 -5.66678e-06 -60.2455 -11.0689 0.109517 -119.808 -0 -0 75.4402 -6.65209e-05 8.53463 -17.2742 -2.55147 8.41961e-06 -43.1482 
91.341 68.848 18.263 122.877 -87.7759 -48.2419 0 -0 0 -1.15223 -6.94351 20.3896 20.4131 -13.3221 -9.86841e-07 60.198 -20.5123 -34.9422 -2.91618e-08 5.51167 -6.05823e-07 -1.29086 19.1803 -0.218115 -14.0263 20.0563 0.000129897 -65.8238 22.6205 -12.7172 -0 -13.9169 0 2.69255 -4.58601 -0.107803 0.503693 1.63801 -43.2493 9.45974 -7.20377 -119.944 -0 -0 76.5086 -1.05536e-05 -3.94833 -15.0521 1.02691 -4.69676e-06 -60.3063 -11.0879 0.0890574 -119.979 -0 -0 75.6309 -1.74719e-05 8.54106 -17.5127 -2.58752 -1.77617e-05 -43.1194 
91.186 68.8 18.28 123.349 -87.7672 -48.5101 0 -0 0 -1.13437 -6.95932 20.232 20.5066 -13.371 4.1745e-05 60.2612 -20.2124 -34.6253 -0 5.85005 -0 -1.38909 19.0314 -0.232905 -14.2066 20.0521 -5.72654e-05 -65.7538 22.415 -12.4142 -7.69497e-08 -14.1964 6.17951e-07 2.61793 -4.48817 -0.102601 0.445887 1.60753 -43.3739 9.45246 -7.20886 -120.104 -0 -0 76.6826 1.08683e-05 -3.93592 -15.2257 1.0352 -2.7455e-06 -60.4227 -11.1054 0.0665824 -120.14 -0 -0 75.8215 1.07536e-05 8.54635 -17.7489 -2.623 2.03965e-05 -43.1378 
91.024 68.752 18.295 123.704 -87.7478 -48.6581 0 -0 0 -1.11147 -6.97506 20.0646 20.6067 -13.4317 -7.84513e-05 60.3224 -19.8887 -34.235 -0 6.21103 -0 -1.48291 18.8825 -0.24661 -14.3881 20.035 -7.00864e-05 -65.6835 22.1961 -12.0995 -7.87563e-08 -14.5105 6.1862e-07 2.56543 -4.39971 -0.0986019 0.395222 1.57616 -43.5126 9.4468 -7.21607 -120.26 -0 -0 76.8597 1.17061e-05 -3.92695 -15.3852 1.04329 1.32262e-06 -60.5866 -11.115 0.0434486 -120.294 -0 -0 76.0131 1.015e-05 8.55169 -17.9758 -2.65694 6.32522e-06 -43.215 
90.854 68.705 18.311 124.076 -87.7334 -48.8285 0 -0 0 -1.0972 -6.99105 19.89 20.7227 -13.4941 5.81659e-05 60.3786 -19.5513 -33.7747 -3.50098e-08 6.60482 -6.06737e-07 -1.57315 18.7383 -0.259617 -14.5678 20.0004 0.000166881 -65.6156 21.9598 -11.7906 -0 -14.8572 0 2.53515 -4.32946 -0.0958013 0.354923 1.54645 -43.6679 9.43468 -7.22742 -120.407 -0 -0 77.0346 7.2887e-06 -3.92207 -15.5358 1.05201 3.0172e-06 -60.8014 -11.1277 0.0188442 -120.435 -0 -0 76.2027 -6.13553e-05 8.55923 -18.1955 -2.69079 2.88867e-05 -43.3482 
90.676 68.658 18.325 124.391 -87.7304 -48.948 0 -0 0 -1.08214 -7.00507 19.7068 20.8567 -13.5662 -9.94431e-05 60.413 -19.1724 -33.277 -0 6.97389 -0 -1.65009 18.6452 -0.270901 -14.7461 19.9517 1.27929e-05 -65.5526 21.7041 -11.5 -8.29354e-08 -15.234 6.20173e-07 2.53178 -4.27146 -0.0943987 0.323203 1.5177 -43.836 9.42104 -7.23866 -120.539 -0 -0 77.2074 1.2314e-05 -3.92512 -15.6896 1.06299 -3.12147e-06 -61.0187 -11.138 -0.0030954 -120.563 -0 -0 76.3883 6.66332e-05 8.56902 -18.4075 -2.72416 7.29203e-06 -43.5303 
90.49 68.611 18.337 124.712 -87.7132 -49.0731 0 -0 0 -1.06136 -7.0187 19.5037 21.0134 -13.6341 8.01825e-06 60.4219 -18.7667 -32.742 -3.89343e-08 7.33461 -6.07453e-07 -1.72897 18.6011 -0.283199 -14.9255 19.8912 -3.0263e-05 -65.4942 21.4252 -11.2359 -0 -15.6398 0 2.54937 -4.23339 -0.0941986 0.294422 1.49246 -44.0154 9.40608 -7.24496 -120.655 -0 -0 77.3709 -2.94276e-06 -3.93981 -15.8551 1.078 -1.27472e-06 -61.2366 -11.1449 -0.0197417 -120.681 -0 -0 76.5735 -4.97989e-06 8.58336 -18.6165 -2.75875 -8.62634e-06 -43.7496 
90.294 68.563 18.345 124.903 -87.7202 -49.073 0 -0 0 -1.0271 -7.03214 19.2853 21.1952 -13.7005 -2.77408e-06 60.3923 -18.3069 -32.2153 -0 7.63734 -0 -1.80711 18.6379 -0.296602 -15.1081 19.8191 3.83351e-05 -65.4402 21.1186 -11.0031 -0 -16.0749 0 2.58641 -4.20549 -0.0950006 0.264094 1.46913 -44.2053 9.39412 -7.24555 -120.751 -0 -0 77.5264 1.14857e-05 -3.96794 -16.05 1.09859 1.26796e-06 -61.4052 -11.1436 -0.0287872 -120.788 -0 -0 76.7546 -3.13037e-06 8.60255 -18.8286 -2.79509 -2.45845e-05 -43.9851 
90.088 68.515 18.35 124.994 -87.7141 -48.9815 0 -0 0 -0.980284 -7.04962 19.0537 21.4048 -13.758 2.45971e-05 60.3211 -17.7869 -31.7295 -0 7.86943 -0 -1.89404 18.7608 -0.312893 -15.2988 19.739 1.99276e-05 -65.3868 20.7744 -10.7977 -0 -16.5378 0 2.63675 -4.18402 -0.0962986 0.228688 1.44803 -44.4073 9.38119 -7.24422 -120.815 -0 -0 77.6728 3.22555e-06 -4.00895 -16.2853 1.12591 -2.6536e-06 -61.5032 -11.1355 -0.0309396 -120.875 -0 -0 76.9316 2.97683e-05 8.62824 -19.0511 -2.83549 1.9189e-05 -44.2103 
89.871 68.467 18.352 124.95 -87.7331 -48.7645 0 -0 0 -0.914392 -7.07044 18.8078 21.6431 -13.8023 -5.50938e-05 60.2079 -17.2055 -31.2792 -0 8.03623 -0 -2.01544 18.9498 -0.336382 -15.5042 19.6513 4.72556e-05 -65.325 20.387 -10.6145 0 -17.0233 0 2.6929 -4.17204 -0.0981015 0.181609 1.42665 -44.6207 9.36612 -7.23891 -120.848 -0 -0 77.8115 1.21704e-05 -4.06448 -16.5683 1.16081 1.13377e-06 -61.5292 -11.116 -0.023303 -120.942 -0 -0 77.1081 -4.30509e-06 8.66111 -19.2943 -2.88139 -1.48929e-05 -44.4092 
89.64 68.418 18.351 124.754 -87.7656 -48.4165 0 -0 0 -0.836496 -7.09927 18.5587 21.9114 -13.8251 7.8849e-05 60.0573 -16.5544 -30.8921 -4.32679e-08 8.13688 -6.08317e-07 -2.18096 19.1862 -0.368609 -15.7299 19.5567 -3.35638e-05 -65.2496 19.9438 -10.4406 -0 -17.5309 0 2.75226 -4.15467 -0.0998025 0.123288 1.40375 -44.8488 9.34347 -7.23892 -120.84 -0 -0 77.9465 8.65942e-07 -4.13151 -16.9059 1.20339 1.32296e-06 -61.4599 -11.0873 -0.00912507 -120.975 -0 -0 77.2828 -9.06824e-05 8.70197 -19.5689 -2.93461 9.65778e-06 -44.5565 
89.394 68.369 18.347 124.353 -87.8066 -47.888 0 -0 0 -0.739974 -7.13316 18.3066 22.2067 -13.8249 -0.000172011 59.8737 -15.8308 -30.5594 -0 8.17947 -0 -2.41216 19.4354 -0.413098 -15.983 19.4514 0.000118186 -65.1489 19.4349 -10.2626 -9.96193e-08 -18.0529 6.27102e-07 2.80993 -4.1386 -0.101501 0.0484893 1.37534 -45.0972 9.30777 -7.24162 -120.786 -0 -0 78.0829 8.7037e-06 -4.21215 -17.2959 1.2543 2.5916e-06 -61.3238 -11.042 0.0140674 -120.975 -0 -0 77.4604 8.04414e-05 8.75193 -19.8763 -2.99629 1.07111e-05 -44.6497 
89.131 68.319 18.341 123.756 -87.8562 -47.1937 0 -0 0 -0.627622 -7.17179 18.0586 22.5215 -13.7936 0.00014163 59.6681 -15.0374 -30.2758 -4.35287e-08 8.18501 -6.08372e-07 -2.72403 19.6504 -0.471805 -16.2716 19.3314 -8.79465e-06 -65.0104 18.8503 -10.0661 -0 -18.5787 0 2.86665 -4.11744 -0.103103 -0.042394 1.33819 -45.3687 9.25362 -7.25199 -120.681 -0 -0 78.2212 1.14531e-05 -4.30736 -17.7289 1.31389 -9.33119e-07 -61.1318 -10.9762 0.0451337 -120.93 -0 -0 77.6433 2.16975e-05 8.813 -20.2212 -3.06753 2.93171e-05 -44.6895 
88.85 68.269 18.332 122.968 -87.8917 -46.3396 0 -0 0 -0.497016 -7.21087 17.8168 22.8482 -13.7321 -0.000113777 59.4531 -14.1713 -30.0334 -0 8.16512 -0 -3.12582 19.7918 -0.545477 -16.599 19.1881 1.04854e-05 -64.825 18.1794 -9.83976 -0 -19.0932 0 2.92454 -4.09965 -0.104698 -0.149687 1.28716 -45.6677 9.17465 -7.26926 -120.522 -0 -0 78.3701 -1.24138e-05 -4.42103 -18.1929 1.38279 -9.5904e-06 -60.9268 -10.8834 0.084422 -120.839 -0 -0 77.8334 6.48316e-05 8.8881 -20.5983 -3.14905 -4.38656e-05 -44.6903 
88.549 68.219 18.322 121.93 -87.9412 -45.276 0 -0 0 -0.355434 -7.25034 17.582 23.1814 -13.6272 1.43297e-05 59.2431 -13.2541 -29.8036 -0 8.16466 -0 -3.62594 19.8021 -0.633095 -16.9669 19.0128 0.000135828 -64.5831 17.4177 -9.57677 0 -19.5849 0 2.98973 -4.08055 -0.106498 -0.26822 1.22105 -45.9962 9.06234 -7.29764 -120.305 -0 -0 78.5311 8.88193e-06 -4.55826 -18.6737 1.46216 -2.18664e-05 -60.7306 -10.759 0.127162 -120.699 -0 -0 78.0321 -7.0591e-05 8.98259 -21.0002 -3.2422 6.26128e-06 -44.6717 
88.226 68.17 18.312 120.728 -87.9849 -44.0918 0 -0 0 -0.207527 -7.28607 17.3579 23.5113 -13.4786 0.000122893 59.0521 -12.2821 -29.5819 -0 8.1931 -0 -4.21716 19.6509 -0.730698 -17.3764 18.7927 -1.08432e-05 -64.2794 16.5551 -9.27498 0 -20.0352 0 3.0691 -4.06865 -0.108999 -0.393195 1.13531 -46.3589 8.90752 -7.33758 -120.029 -0 -0 78.7049 9.89962e-06 -4.72626 -19.1525 1.55365 -1.7376e-05 -60.5791 -10.5982 0.170877 -120.497 -0 -0 78.2393 -5.86191e-05 9.10356 -21.4161 -3.34837 6.99009e-08 -44.6623 
87.875 68.122 18.307 119.697 -87.9803 -43.1381 0 -0 0 -0.102569 -7.32271 17.1681 23.8503 -13.2771 0.000224632 58.8877 -11.2639 -29.3479 -0 8.27552 -0 -4.89224 19.3119 -0.832911 -17.8137 18.5147 -2.99825e-06 -63.9074 15.5807 -8.94303 0 -20.4227 0 3.17048 -4.06581 -0.112599 -0.503701 1.03 -46.767 8.68015 -7.40806 -119.682 -0 -0 78.8998 7.40849e-06 -4.92563 -19.6173 1.65727 -2.02354e-05 -60.4944 -10.4227 0.199039 -120.203 -0 -0 78.4479 -2.61232e-06 9.26227 -21.8409 -3.47194 -4.09378e-05 -44.6706 
87.503 68.076 18.296 118.324 -87.9887 -41.8819 0 -0 0 0.0336736 -7.33631 16.9728 24.1992 -13.0202 -5.662e-05 58.6821 -10.184 -29.3062 -0 8.19648 -0 -5.43749 19.273 -0.923932 -18.2793 18.1707 3.43e-06 -63.4788 14.5031 -8.58339 -0 -20.7268 0 3.30504 -4.09297 -0.118096 -0.618205 0.898194 -47.2049 8.41388 -7.4691 -119.27 -0 -0 79.0999 -5.89012e-07 -5.1838 -20.0572 1.78203 -3.01642e-05 -60.487 -10.1804 0.233742 -119.862 -0 -0 78.6651 8.52477e-06 9.46229 -22.2463 -3.61051 2.91464e-05 -44.7486 
